<svg fill="none" viewBox="0 0 338 104" xmlns="http://www.w3.org/2000/svg">
  <path d="M139.278 66.9768C138.075 68.2835 136.37 69.0541 134.598 69.0541C129.55 69.0541 126.106 66.5412 122.796 64.1289C119.654 61.8505 116.377 59.4717 112.031 59.4717H111.998C107.05 59.4717 103.406 62.0851 99.8952 64.6314C96.8195 66.8428 93.8774 68.9536 90.3002 68.9536C86.8567 68.9536 82.8448 66.2397 82.8448 62.7217C82.8448 62.1186 82.9451 60.5773 83.7809 59.5722C83.9815 59.3041 84.5164 58.8351 85.0848 58.299C87.0238 56.4562 89.9324 53.7088 91.1694 50.7938C93.3425 48.7165 94.6798 45.768 94.6798 42.518C94.6798 39.8711 93.7771 37.4253 92.2727 35.482C92.0721 30.1546 89.7653 25.1624 85.7534 21.3093C81.775 17.5232 76.5261 15.3454 71.3441 15.3454C66.1621 15.3454 60.9467 17.5232 56.9348 21.3093C55.9987 22.2139 55.1629 23.1521 54.394 24.1907V12.8325C54.394 11.7268 53.4913 10.8222 52.388 10.8222C51.2847 10.8222 50.3821 11.7268 50.3821 12.8325V35.5155C48.8776 37.4588 48.0084 39.8711 48.0084 42.518C48.0084 45.768 49.3791 48.7165 51.5522 50.8273C52.7892 53.7423 55.6978 56.4562 57.6369 58.299C58.2052 58.8351 58.7067 59.3376 58.9407 59.5722C59.7765 60.5773 59.8768 62.0851 59.8768 62.7217C59.8768 66.2397 55.865 68.9536 52.4215 68.9536C48.8442 68.9536 45.9356 66.8428 42.8264 64.6314C39.316 62.1186 35.7053 59.5052 30.7239 59.4717H30.6905C26.3443 59.4717 23.0679 61.8505 19.9253 64.1289C16.5821 66.5412 13.1386 69.0541 8.12372 69.0541C6.35181 69.0541 4.64677 68.317 3.44321 66.9768C2.7077 66.1727 1.43727 66.1057 0.601466 66.8428C-0.200908 67.5799 -0.267773 68.8531 0.467737 69.6907C2.40681 71.8351 5.21512 73.0747 8.09029 73.0747C14.4424 73.0747 18.588 70.0593 22.2656 67.3789C25.1407 65.3016 27.6147 63.4923 30.6571 63.4923H30.6905C34.368 63.4923 37.3101 65.6366 40.4527 67.8814C43.9297 70.3943 47.5069 72.9742 52.388 72.9742C55.1295 72.9742 57.9378 71.9356 60.1109 70.1263C62.518 68.116 63.8553 65.5026 63.8553 62.7217C63.8553 61.415 63.6213 58.9356 61.9831 56.9923C61.6153 56.5567 61.0804 56.0541 60.3783 55.384C59.9437 54.982 59.4757 54.5129 58.9407 54.0103C59.1079 54.0103 59.2751 54.0103 59.4757 54.0103H83.1791C83.3463 54.0103 83.5469 54.0103 83.714 54.0103C83.2125 54.5129 82.7111 54.982 82.2765 55.384C81.5744 56.0541 81.0395 56.5567 80.6717 56.9923C79.0335 58.9356 78.7995 61.415 78.7995 62.7217C78.7995 65.5026 80.1368 68.116 82.5439 70.1263C84.717 71.9356 87.5587 72.9742 90.2668 72.9742C95.1479 72.9742 98.7251 70.3943 102.202 67.8814C105.345 65.6366 108.287 63.4923 111.964 63.4923H111.998C115.04 63.4923 117.514 65.3016 120.389 67.3789C124.067 70.0593 128.212 73.0747 134.564 73.0747C137.473 73.0747 140.248 71.8351 142.187 69.6907C142.923 68.8866 142.889 67.6134 142.053 66.8428C141.284 66.1057 140.014 66.1727 139.278 66.9768ZM71.3775 19.366C78.1643 19.366 85.5862 24.3582 87.6925 31.9304C86.3217 31.3273 84.8173 31.0258 83.2125 31.0258H59.5091C57.9043 31.0258 56.3999 31.3608 55.0292 31.9304C57.1688 24.3582 64.5908 19.366 71.3775 19.366ZM83.2125 49.9897H59.5091C57.6703 49.9897 55.9987 49.3196 54.6948 48.2139C54.628 48.1469 54.5611 48.0799 54.4608 48.0129C52.9898 46.6392 52.0537 44.6959 52.0537 42.518C52.0537 40.7423 52.6889 39.1005 53.6919 37.8273C53.859 37.6933 53.9928 37.5258 54.1265 37.3582C55.4972 35.951 57.4029 35.0464 59.5091 35.0464H83.2125C85.3188 35.0464 87.2244 35.951 88.5951 37.3582C88.6954 37.5258 88.8626 37.6933 89.0298 37.8273C90.0662 39.1005 90.6679 40.7423 90.6679 42.518C90.6679 46.6392 87.3247 49.9897 83.2125 49.9897Z" fill="black"></path>
  <path d="M111.998 49.9897C106.314 49.9897 103.004 51.7655 98.8254 54.0103C97.8559 54.5464 97.4881 55.7526 97.9896 56.7242C98.5245 57.6959 99.7281 58.0644 100.698 57.5619C105.044 55.25 107.484 54.0438 111.964 54.0438C115.073 54.0438 116.946 55.2165 120.322 57.3943C121.593 58.1985 123.03 59.1366 124.802 60.1418C125.103 60.3093 125.471 60.4098 125.805 60.4098C126.507 60.4098 127.176 60.0412 127.544 59.4046C128.079 58.433 127.778 57.2268 126.808 56.6572C125.137 55.6856 123.732 54.8144 122.495 54.0103C118.885 51.6649 116.277 49.9897 111.998 49.9897Z" fill="black"></path>
  <path d="M104.141 89.0232C100.263 85.8737 94.7467 87.0129 91.4703 87.683C90.902 87.7835 90.4005 87.9175 90.0327 87.951C86.8901 88.4201 82.6108 89.0902 77.596 83.7964C76.827 82.9922 75.5566 82.9587 74.7542 83.7294C73.9518 84.5 73.9184 85.7732 74.6873 86.5773C81.1398 93.3789 87.3247 92.4407 90.6345 91.9381C91.1026 91.8711 91.6375 91.7371 92.2727 91.6366C95.0476 91.067 99.2266 90.1959 101.6 92.1727C103.138 93.4459 103.941 95.8917 103.941 99.4433C103.941 100.549 104.843 101.454 105.947 101.454C107.05 101.454 107.952 100.549 107.952 99.4433C107.952 94.585 106.649 91.1005 104.141 89.0232Z" fill="black"></path>
  <path d="M128.647 78.5026C127.276 78.1675 125.471 76.6263 123.565 74.9845C120.289 72.1701 116.611 68.9871 111.998 68.9871C108.487 68.9871 105.244 71.1649 101.801 73.4768C98.1902 75.9227 94.4458 78.4356 90.3002 78.4691C87.0238 78.5026 84.3158 77.4974 82.243 75.4871C81.4406 74.7165 80.1702 74.75 79.4013 75.5206C78.6323 76.3247 78.6658 77.5979 79.4347 78.3685C82.243 81.0825 85.8203 82.4897 90.0996 82.4897C90.1665 82.4897 90.2333 82.4897 90.3336 82.4897C95.6494 82.4227 100.096 79.4407 104.007 76.8273C106.916 74.8505 109.691 73.0077 111.998 73.0077C115.107 73.0077 118.082 75.5541 120.958 78.0335C123.231 80.0103 125.404 81.8866 127.744 82.4227C128.814 82.6907 129.917 82.0206 130.151 80.9149C130.385 79.8428 129.717 78.7706 128.647 78.5026Z" fill="black"></path>
  <path d="M16.9498 60.3763C17.2842 60.3763 17.6185 60.2758 17.9528 60.1083C19.6913 59.1031 21.1623 58.165 22.4327 57.3608C25.8094 55.2165 27.6482 54.0103 30.7908 54.0103C35.2707 54.0103 37.7113 55.2165 42.0575 57.5284C43.027 58.0644 44.264 57.6959 44.7655 56.6907C45.3004 55.7191 44.9326 54.4794 43.9297 53.9768C39.7506 51.732 36.4408 49.9562 30.7574 49.9562C26.478 49.9562 23.8703 51.6315 20.2596 53.9433C19.0226 54.7474 17.6185 55.6186 15.9469 56.5902C14.9773 57.1263 14.643 58.366 15.2114 59.3376C15.5791 60.0077 16.2478 60.3763 16.9498 60.3763Z" fill="black"></path>
  <path d="M50.4824 91.6031C51.1176 91.7371 51.6525 91.8376 52.1206 91.9046C55.4304 92.4072 61.6153 93.3789 68.0677 86.5438C68.8367 85.7397 68.8033 84.4665 68.0009 83.6959C67.1985 82.9253 65.9281 82.9588 65.1591 83.7629C60.1443 89.0567 55.865 88.3866 52.7223 87.9175C52.3546 87.8505 51.8531 87.75 51.2848 87.6495C47.975 86.9794 42.4921 85.8402 38.6139 88.9897C36.0731 91.067 34.8027 94.5515 34.8027 99.4098C34.8027 100.515 35.7053 101.42 36.8086 101.42C37.9119 101.42 38.8145 100.515 38.8145 99.4098C38.8145 95.8247 39.6169 93.3789 41.1548 92.1392C43.5619 90.1959 47.7409 91.0335 50.4824 91.6031Z" fill="black"></path>
  <path d="M38.7477 76.7938C42.6592 79.4072 47.1057 82.3892 52.4215 82.4562C52.4883 82.4562 52.5552 82.4562 52.6555 82.4562C56.9014 82.4562 60.5121 81.0825 63.3204 78.3351C64.1227 77.5644 64.1227 76.2912 63.3538 75.4871C62.5849 74.683 61.3144 74.683 60.5121 75.4536C58.4393 77.4639 55.7312 78.4691 52.4549 78.4356C48.3093 78.4021 44.5983 75.8892 40.9542 73.4433C37.5107 71.1314 34.2677 68.9536 30.7574 68.9536C26.1437 68.9536 22.4327 72.1366 19.1898 74.951C17.2842 76.5928 15.4788 78.1675 14.1081 78.4691C13.0383 78.7371 12.3696 79.8093 12.6036 80.8814C12.8711 81.9536 13.9409 82.6237 15.0108 82.3892C17.3176 81.8531 19.4907 79.9768 21.7975 78C24.6727 75.5206 27.6147 72.9742 30.7574 72.9742C33.0642 72.9742 35.8056 74.8505 38.7477 76.7938Z" fill="black"></path>
  <path d="M59.6094 5.52835C63.4875 4.5232 67.4994 4.02062 71.5112 4.02062C83.5134 4.02062 94.9807 8.4768 103.807 16.5851C112.599 24.6263 118.049 35.5825 119.152 47.4098C119.252 48.4485 120.122 49.2191 121.158 49.2191C121.225 49.2191 121.292 49.2191 121.359 49.2191C122.462 49.1186 123.264 48.1469 123.164 47.0412C121.961 34.2088 116.043 22.3479 106.515 13.6366C96.9532 4.82474 84.5164 0 71.5447 0C67.165 0 62.8189 0.536082 58.6398 1.60825C57.57 1.87629 56.9348 2.98196 57.2022 4.05412C57.4363 5.15979 58.5395 5.79639 59.6094 5.52835Z" fill="black"></path>
  <path d="M21.6972 49.2526C21.7641 49.2526 21.8309 49.2526 21.8978 49.2526C22.9342 49.2526 23.8034 48.482 23.9037 47.4433C24.0375 45.9356 24.2715 44.3943 24.5389 42.8866C27.1132 29.4175 35.4044 17.6572 47.2394 10.6546C48.209 10.085 48.5099 8.84536 47.9415 7.90722C47.3732 6.93557 46.1362 6.63402 45.2001 7.20361C32.3287 14.8093 23.3688 27.5412 20.5605 42.1495C20.2596 43.7577 20.0256 45.433 19.8584 47.0747C19.7581 48.1804 20.5939 49.1521 21.6972 49.2526Z" fill="black"></path><path d="M36.14 84.3325C34.2677 82.2552 32.5627 80.0103 31.0583 77.665C30.4565 76.7268 29.2195 76.4588 28.2834 77.0284C27.3473 77.6314 27.0798 78.8711 27.6482 79.8093C29.2529 82.3557 31.1251 84.8016 33.1645 87.0129C33.5657 87.4485 34.1006 87.683 34.6355 87.683C35.1035 87.683 35.605 87.5155 35.9728 87.1469C36.842 86.4098 36.9089 85.1366 36.14 84.3325Z" fill="black"></path>
  <path d="M95.1813 93.7139C88.0268 97.8015 79.8359 99.9794 71.5447 99.9794C63.2535 99.9794 55.0626 97.8015 47.9081 93.7139C46.9386 93.1778 45.735 93.5129 45.1666 94.451C44.6317 95.4227 44.966 96.6289 45.9022 97.1984C53.6919 101.621 62.5514 103.966 71.5447 103.966C80.538 103.966 89.3975 101.621 97.1872 97.1984C98.1568 96.6624 98.4911 95.4227 97.9227 94.451C97.3544 93.5129 96.1508 93.1778 95.1813 93.7139Z" fill="black"></path>
  <path d="M114.773 77.0284C113.837 76.4253 112.6 76.7268 111.998 77.665C110.493 80.0103 108.788 82.2552 106.916 84.3325C106.181 85.1366 106.214 86.4098 107.05 87.1804C107.451 87.5155 107.919 87.7165 108.387 87.7165C108.922 87.7165 109.49 87.482 109.858 87.0464C111.897 84.8016 113.736 82.3892 115.374 79.8428C115.976 78.8711 115.709 77.6315 114.773 77.0284Z" fill="black"></path>
  <path d="M53.8386 7.12078C54.6089 6.3488 54.6089 5.09717 53.8386 4.32519C53.0683 3.5532 51.8194 3.55321 51.0491 4.32519C50.2788 5.09717 50.2788 6.3488 51.0491 7.12078C51.8194 7.89277 53.0683 7.89277 53.8386 7.12078Z" fill="black"></path>
  <path d="M170.838 53.9768C169.702 53.9768 168.431 54.2448 167.027 54.8144C166.793 54.915 166.559 54.7474 166.559 54.4794V47.5773C166.559 47.3763 166.392 47.2423 166.225 47.2423H163.216C163.015 47.2423 162.882 47.4098 162.882 47.5773V71.0644C162.882 71.232 163.015 71.3995 163.182 71.3995L164.018 71.4665C166.325 71.6675 168.03 71.768 169.1 71.768C172.176 71.768 174.349 71.0979 175.586 69.7912C176.823 68.4845 177.425 66.1727 177.425 62.8557C177.425 59.5387 176.923 57.2268 175.887 55.9201C174.884 54.6134 173.179 53.9768 170.838 53.9768ZM172.778 67.2113C172.176 68.049 170.972 68.4845 169.133 68.4845C168.732 68.4845 167.963 68.451 166.893 68.384C166.726 68.384 166.559 68.2165 166.559 68.049V58.232C166.559 58.0979 166.659 57.9639 166.793 57.8969L167.094 57.7964C168.197 57.4613 169.267 57.2938 170.37 57.2938C171.541 57.2938 172.376 57.6959 172.878 58.5335C173.379 59.3711 173.647 60.8119 173.647 62.8557C173.68 64.8995 173.379 66.3402 172.778 67.2113Z" fill="black"></path>
  <path d="M199.49 54.3454H196.514C196.347 54.3454 196.214 54.4459 196.18 54.6134L192.703 68.0155C192.67 68.1495 192.536 68.2835 192.369 68.2835H191.968C191.8 68.2835 191.667 68.183 191.633 68.0155L188.156 54.6134C188.123 54.4794 187.989 54.3454 187.822 54.3454H184.88C184.646 54.3454 184.479 54.5464 184.546 54.7809L188.825 71.1649C188.858 71.299 188.992 71.433 189.159 71.433H191.366C191.6 71.433 191.767 71.634 191.7 71.8686L189.895 78.3351C189.828 78.5696 189.995 78.7706 190.229 78.7706H193.171C193.338 78.7706 193.472 78.6701 193.506 78.5026L199.791 54.7474C199.858 54.5464 199.724 54.3454 199.49 54.3454Z" fill="black"></path>
  <path d="M216.708 68.4175L214.234 68.518C213.398 68.518 212.863 68.2835 212.662 67.8479C212.462 67.3789 212.361 66.4742 212.361 65.067V57.8969C212.361 57.6959 212.528 57.5619 212.696 57.5619H216.708C216.908 57.5619 217.042 57.3943 217.042 57.2268V54.7474C217.042 54.5464 216.875 54.4124 216.708 54.4124H212.696C212.495 54.4124 212.361 54.2448 212.361 54.0773V49.8222C212.361 49.6211 212.194 49.4871 212.027 49.4871H209.018C208.818 49.4871 208.684 49.6546 208.684 49.8222V54.0773C208.684 54.2783 208.517 54.4124 208.349 54.4124H206.845C206.644 54.4124 206.511 54.5799 206.511 54.7474V57.2268C206.511 57.4278 206.678 57.5619 206.845 57.5619H208.349C208.55 57.5619 208.684 57.7294 208.684 57.8969V65.4691C208.684 67.9149 209.052 69.5902 209.754 70.4948C210.456 71.3995 211.793 71.835 213.732 71.835C214.468 71.835 215.537 71.701 216.908 71.433C217.075 71.3995 217.209 71.232 217.176 71.0644L217.042 68.7191C217.042 68.5515 216.875 68.384 216.708 68.4175Z" fill="black"></path>
  <path d="M231.785 53.9768C226.838 53.9768 224.397 56.9923 224.397 63.0567C224.397 66.1057 224.932 68.317 226.035 69.7242C227.138 71.0979 228.944 71.8016 231.485 71.8016C233.424 71.8016 235.597 71.567 238.071 71.0644C238.238 71.0309 238.338 70.8969 238.338 70.7294L238.271 68.6186C238.271 68.4175 238.104 68.25 237.904 68.2835L237.369 68.3505C235.664 68.4845 233.992 68.5516 232.387 68.5516C230.782 68.5516 229.679 68.2165 229.077 67.5464C228.543 66.9433 228.242 66.0387 228.175 64.799C228.175 64.5979 228.309 64.4304 228.509 64.4304H238.405C238.572 64.4304 238.739 64.2964 238.739 64.1289L238.94 61.7835V61.75C238.94 56.5902 236.566 53.9768 231.785 53.9768ZM234.962 61.5825H228.476C228.275 61.5825 228.141 61.415 228.141 61.2139C228.208 59.7732 228.509 58.7345 229.044 58.0979C229.612 57.3943 230.548 57.0258 231.819 57.0258C233.089 57.0258 233.992 57.3608 234.527 58.0309C235.028 58.6675 235.296 59.7062 235.329 61.2139C235.296 61.4485 235.162 61.5825 234.962 61.5825Z" fill="black"></path>
  <path d="M261.206 47.2423H258.164C257.963 47.2423 257.829 47.4098 257.829 47.5773V54.0103C257.829 54.2113 257.629 54.3789 257.428 54.3454C255.857 54.0773 254.687 53.9768 253.951 53.9768C251.51 53.9768 249.739 54.6804 248.568 56.1211C247.432 57.5619 246.863 59.8402 246.863 63.0232C246.863 66.1727 247.365 68.451 248.401 69.7912C249.438 71.1314 251.076 71.8015 253.282 71.8015C254.519 71.8015 255.89 71.4665 257.361 70.7629C257.595 70.6624 257.863 70.8299 257.863 71.0644C257.863 71.2655 258.03 71.3995 258.197 71.3995H261.206C261.406 71.3995 261.54 71.232 261.54 71.0644V47.5773C261.574 47.4098 261.406 47.2423 261.206 47.2423ZM257.829 67.4124C257.829 67.5464 257.762 67.6804 257.629 67.7139L257.261 67.8814C256.224 68.2835 255.121 68.4845 253.951 68.4845C252.781 68.4845 251.945 68.0825 251.41 67.2784C250.875 66.4742 250.608 65.0335 250.608 62.9227C250.608 59.1031 251.745 57.1933 254.051 57.1933C255.121 57.1933 256.291 57.2938 257.528 57.4949C257.695 57.5284 257.829 57.6624 257.829 57.8299V67.4124Z" fill="black"></path>
  <path d="M274.545 47.5103H271.503C271.302 47.5103 271.169 47.6778 271.169 47.8454V51.0954C271.169 51.2964 271.336 51.4304 271.503 51.4304H274.545C274.746 51.4304 274.88 51.2629 274.88 51.0954V47.8454C274.88 47.6778 274.746 47.5103 274.545 47.5103Z" fill="black"></path>
  <path d="M274.545 54.3454H271.503C271.302 54.3454 271.169 54.5129 271.169 54.6804V71.0644C271.169 71.2655 271.336 71.3995 271.503 71.3995H274.545C274.746 71.3995 274.88 71.2319 274.88 71.0644V54.6804C274.88 54.5129 274.746 54.3454 274.545 54.3454Z" fill="black"></path>
  <path d="M297.914 54.3454H294.839C294.672 54.3454 294.538 54.4459 294.504 54.6134L291.228 67.982C291.195 68.1495 291.061 68.25 290.894 68.25H290.325C290.158 68.25 290.024 68.1495 289.991 67.982L286.848 54.6134C286.815 54.4459 286.681 54.3454 286.514 54.3454H283.338C283.104 54.3454 282.937 54.5464 283.004 54.7809L287.216 71.1649C287.25 71.3325 287.383 71.433 287.55 71.433H293.635C293.802 71.433 293.936 71.3325 293.969 71.1649L298.215 54.7809C298.282 54.5464 298.115 54.3454 297.914 54.3454Z" fill="black"></path>
  <path d="M312.658 53.9768C307.71 53.9768 305.269 56.9923 305.269 63.0567C305.269 66.1057 305.804 68.317 306.908 69.7242C308.011 71.0979 309.816 71.8016 312.357 71.8016C314.296 71.8016 316.469 71.567 318.943 71.0644C319.11 71.0309 319.211 70.8969 319.211 70.7294L319.144 68.6186C319.144 68.4175 318.977 68.25 318.776 68.2835L318.174 68.3505C316.469 68.4845 314.798 68.5516 313.193 68.5516C311.588 68.5516 310.485 68.2165 309.883 67.5464C309.348 66.9433 309.047 66.0387 308.98 64.799C308.98 64.5979 309.114 64.4304 309.315 64.4304H319.278C319.445 64.4304 319.612 64.2964 319.612 64.1289L319.812 61.7835V61.75C319.812 56.5902 317.439 53.9768 312.658 53.9768ZM315.834 61.5825H309.348C309.148 61.5825 309.014 61.415 309.014 61.2139C309.081 59.7732 309.382 58.7345 309.917 58.0979C310.485 57.3943 311.421 57.0258 312.691 57.0258C313.962 57.0258 314.865 57.3608 315.399 58.0309C315.901 58.6675 316.168 59.7062 316.202 61.2139C316.168 61.4485 316.001 61.5825 315.834 61.5825Z" fill="black"></path>
  <path d="M337.565 54.0438C335.96 54.4124 334.322 55.0825 332.717 56.0541C332.483 56.1881 332.182 56.0206 332.182 55.7526V54.6469C332.182 54.4459 332.015 54.3119 331.848 54.3119H328.839C328.639 54.3119 328.505 54.4794 328.505 54.6469V71.0309C328.505 71.232 328.672 71.366 328.839 71.366H331.882C332.082 71.366 332.216 71.1985 332.216 71.0309V59.6727C332.216 59.5387 332.316 59.4046 332.416 59.3711L332.951 59.1366C334.289 58.567 335.86 58.0644 337.699 57.6959C337.866 57.6624 337.966 57.5283 337.966 57.3608V54.3454C338 54.1778 337.799 54.0103 337.565 54.0438Z" fill="black"></path>
</svg>