<svg width="143" height="104" viewBox="0 0 143 104" fill="none" xmlns="http://www.w3.org/2000/svg">
  <path d="M139.278 66.9768C138.075 68.2835 136.369 69.0541 134.598 69.0541C129.549 69.0541 126.106 66.5412 122.796 64.1289C119.653 61.8505 116.377 59.4717 112.031 59.4717H111.997C107.049 59.4717 103.405 62.0851 99.8949 64.6314C96.8191 66.8428 93.8771 68.9536 90.2998 68.9536C86.8563 68.9536 82.8444 66.2397 82.8444 62.7217C82.8444 62.1186 82.9447 60.5773 83.7805 59.5722C83.9811 59.3041 84.516 58.8351 85.0844 58.299C87.0235 56.4562 89.9321 53.7088 91.1691 50.7938C93.3422 48.7165 94.6795 45.768 94.6795 42.518C94.6795 39.8711 93.7768 37.4253 92.2723 35.482C92.0717 30.1546 89.7649 25.1624 85.753 21.3093C81.7746 17.5232 76.5257 15.3454 71.3437 15.3454C66.1617 15.3454 60.9463 17.5232 56.9344 21.3093C55.9983 22.2139 55.1625 23.1521 54.3936 24.1907V12.8325C54.3936 11.7268 53.4909 10.8222 52.3876 10.8222C51.2844 10.8222 50.3817 11.7268 50.3817 12.8325V35.5155C48.8773 37.4588 48.008 39.8711 48.008 42.518C48.008 45.768 49.3787 48.7165 51.5518 50.8273C52.7888 53.7423 55.6974 56.4562 57.6365 58.299C58.2049 58.8351 58.7063 59.3376 58.9404 59.5722C59.7762 60.5773 59.8765 62.0851 59.8765 62.7217C59.8765 66.2397 55.8646 68.9536 52.4211 68.9536C48.8438 68.9536 45.9352 66.8428 42.826 64.6314C39.3156 62.1186 35.705 59.5052 30.7236 59.4717H30.6901C26.3439 59.4717 23.0676 61.8505 19.9249 64.1289C16.5817 66.5412 13.1382 69.0541 8.12335 69.0541C6.35145 69.0541 4.6464 68.317 3.44284 66.9768C2.70733 66.1727 1.43691 66.1057 0.6011 66.8428C-0.201274 67.5799 -0.268139 68.8531 0.467371 69.6907C2.40644 71.8351 5.21475 73.0747 8.08992 73.0747C14.442 73.0747 18.5877 70.0593 22.2652 67.3789C25.1404 65.3016 27.6144 63.4923 30.6567 63.4923H30.6901C34.3677 63.4923 37.3097 65.6366 40.4523 67.8814C43.9293 70.3943 47.5065 72.9742 52.3876 72.9742C55.1291 72.9742 57.9374 71.9356 60.1105 70.1263C62.5176 68.116 63.8549 65.5026 63.8549 62.7217C63.8549 61.415 63.6209 58.9356 61.9827 56.9923C61.615 56.5567 61.08 56.0541 60.378 55.384C59.9433 54.982 59.4753 54.5129 58.9404 54.0103C59.1075 54.0103 59.2747 54.0103 59.4753 54.0103H83.1787C83.3459 54.0103 83.5465 54.0103 83.7137 54.0103C83.2122 54.5129 82.7107 54.982 82.2761 55.384C81.574 56.0541 81.0391 56.5567 80.6713 56.9923C79.0331 58.9356 78.7991 61.415 78.7991 62.7217C78.7991 65.5026 80.1364 68.116 82.5435 70.1263C84.7166 71.9356 87.5584 72.9742 90.2664 72.9742C95.1475 72.9742 98.7247 70.3943 102.202 67.8814C105.344 65.6366 108.286 63.4923 111.964 63.4923H111.997C115.04 63.4923 117.514 65.3016 120.389 67.3789C124.066 70.0593 128.212 73.0747 134.564 73.0747C137.473 73.0747 140.248 71.8351 142.187 69.6907C142.922 68.8866 142.889 67.6134 142.053 66.8428C141.284 66.1057 140.014 66.1727 139.278 66.9768ZM71.3772 19.366C78.1639 19.366 85.5859 24.3582 87.6921 31.9304C86.3214 31.3273 84.8169 31.0258 83.2122 31.0258H59.5087C57.904 31.0258 56.3995 31.3608 55.0288 31.9304C57.1685 24.3582 64.5904 19.366 71.3772 19.366ZM83.2122 49.9897H59.5087C57.6699 49.9897 55.9983 49.3196 54.6945 48.2139C54.6276 48.1469 54.5607 48.0799 54.4604 48.0129C52.9894 46.6392 52.0533 44.6959 52.0533 42.518C52.0533 40.7423 52.6885 39.1005 53.6915 37.8273C53.8587 37.6933 53.9924 37.5258 54.1261 37.3582C55.4968 35.951 57.4025 35.0464 59.5087 35.0464H83.2122C85.3184 35.0464 87.2241 35.951 88.5948 37.3582C88.6951 37.5258 88.8622 37.6933 89.0294 37.8273C90.0658 39.1005 90.6676 40.7423 90.6676 42.518C90.6676 46.6392 87.3243 49.9897 83.2122 49.9897Z" fill="black"></path>
  <path d="M111.997 49.9897C106.314 49.9897 103.004 51.7655 98.825 54.0103C97.8555 54.5464 97.4877 55.7526 97.9892 56.7242C98.5241 57.6959 99.7277 58.0644 100.697 57.5619C105.043 55.25 107.484 54.0438 111.964 54.0438C115.073 54.0438 116.945 55.2165 120.322 57.3943C121.592 58.1985 123.03 59.1366 124.802 60.1418C125.103 60.3093 125.471 60.4098 125.805 60.4098C126.507 60.4098 127.176 60.0412 127.543 59.4046C128.078 58.433 127.777 57.2268 126.808 56.6572C125.136 55.6856 123.732 54.8144 122.495 54.0103C118.884 51.6649 116.277 49.9897 111.997 49.9897Z" fill="black"></path>
  <path d="M104.141 89.0232C100.263 85.8737 94.7463 87.0129 91.47 87.683C90.9016 87.7835 90.4001 87.9175 90.0324 87.951C86.8897 88.4201 82.6104 89.0902 77.5956 83.7964C76.8267 82.9922 75.5562 82.9587 74.7539 83.7294C73.9515 84.5 73.918 85.7732 74.687 86.5773C81.1394 93.3789 87.3244 92.4407 90.6342 91.9381C91.1022 91.8711 91.6371 91.7371 92.2723 91.6366C95.0472 91.067 99.2263 90.1959 101.6 92.1727C103.138 93.4459 103.94 95.8917 103.94 99.4433C103.94 100.549 104.843 101.454 105.946 101.454C107.049 101.454 107.952 100.549 107.952 99.4433C107.952 94.585 106.648 91.1005 104.141 89.0232Z" fill="black"></path>
  <path d="M128.647 78.5026C127.276 78.1675 125.471 76.6263 123.565 74.9845C120.289 72.1701 116.611 68.9871 111.997 68.9871C108.487 68.9871 105.244 71.1649 101.801 73.4768C98.1898 75.9227 94.4454 78.4356 90.2998 78.4691C87.0235 78.5026 84.3154 77.4974 82.2426 75.4871C81.4403 74.7165 80.1698 74.75 79.4009 75.5206C78.632 76.3247 78.6654 77.5979 79.4343 78.3685C82.2426 81.0825 85.8199 82.4897 90.0992 82.4897C90.1661 82.4897 90.233 82.4897 90.3333 82.4897C95.649 82.4227 100.095 79.4407 104.007 76.8273C106.916 74.8505 109.691 73.0077 111.997 73.0077C115.107 73.0077 118.082 75.5541 120.957 78.0335C123.231 80.0103 125.404 81.8866 127.744 82.4227C128.814 82.6907 129.917 82.0206 130.151 80.9149C130.385 79.8428 129.716 78.7706 128.647 78.5026Z" fill="black"></path>
  <path d="M16.9495 60.3763C17.2838 60.3763 17.6181 60.2758 17.9524 60.1083C19.6909 59.1031 21.1619 58.165 22.4324 57.3608C25.809 55.2165 27.6478 54.0103 30.7904 54.0103C35.2704 54.0103 37.7109 55.2165 42.0571 57.5284C43.0266 58.0644 44.2636 57.6959 44.7651 56.6907C45.3 55.7191 44.9323 54.4794 43.9293 53.9768C39.7503 51.732 36.4405 49.9562 30.757 49.9562C26.4777 49.9562 23.87 51.6315 20.2593 53.9433C19.0223 54.7474 17.6181 55.6186 15.9465 56.5902C14.977 57.1263 14.6427 58.366 15.211 59.3376C15.5788 60.0077 16.2474 60.3763 16.9495 60.3763Z" fill="black"></path>
  <path d="M50.482 91.6031C51.1172 91.7371 51.6521 91.8376 52.1202 91.9046C55.43 92.4072 61.615 93.3789 68.0674 86.5438C68.8363 85.7397 68.8029 84.4665 68.0005 83.6959C67.1981 82.9253 65.9277 82.9588 65.1588 83.7629C60.1439 89.0567 55.8646 88.3866 52.722 87.9175C52.3542 87.8505 51.8527 87.75 51.2844 87.6495C47.9746 86.9794 42.4917 85.8402 38.6136 88.9897C36.0727 91.067 34.8023 94.5515 34.8023 99.4098C34.8023 100.515 35.705 101.42 36.8082 101.42C37.9115 101.42 38.8142 100.515 38.8142 99.4098C38.8142 95.8247 39.6165 93.3789 41.1544 92.1392C43.5615 90.1959 47.7406 91.0335 50.482 91.6031Z" fill="black"></path>
  <path d="M38.7473 76.7938C42.6589 79.4072 47.1054 82.3892 52.4211 82.4562C52.488 82.4562 52.5548 82.4562 52.6551 82.4562C56.901 82.4562 60.5117 81.0825 63.32 78.3351C64.1224 77.5644 64.1224 76.2912 63.3534 75.4871C62.5845 74.683 61.3141 74.683 60.5117 75.4536C58.4389 77.4639 55.7309 78.4691 52.4545 78.4356C48.3089 78.4021 44.5979 75.8892 40.9538 73.4433C37.5103 71.1314 34.2674 68.9536 30.757 68.9536C26.1433 68.9536 22.4324 72.1366 19.1894 74.951C17.2838 76.5928 15.4785 78.1675 14.1077 78.4691C13.0379 78.7371 12.3693 79.8093 12.6033 80.8814C12.8707 81.9536 13.9406 82.6237 15.0104 82.3892C17.3172 81.8531 19.4903 79.9768 21.7971 78C24.6723 75.5206 27.6144 72.9742 30.757 72.9742C33.0638 72.9742 35.8053 74.8505 38.7473 76.7938Z" fill="black"></path>
  <path d="M59.609 5.52835C63.4871 4.5232 67.499 4.02062 71.5109 4.02062C83.513 4.02062 94.9803 8.4768 103.806 16.5851C112.599 24.6263 118.049 35.5825 119.152 47.4098C119.252 48.4485 120.121 49.2191 121.158 49.2191C121.225 49.2191 121.291 49.2191 121.358 49.2191C122.462 49.1186 123.264 48.1469 123.164 47.0412C121.96 34.2088 116.043 22.3479 106.514 13.6366C96.9528 4.82474 84.516 0 71.5443 0C67.1647 0 62.8185 0.536082 58.6395 1.60825C57.5696 1.87629 56.9344 2.98196 57.2019 4.05412C57.4359 5.15979 58.5392 5.79639 59.609 5.52835Z" fill="black"></path>
  <path d="M21.6968 49.2526C21.7637 49.2526 21.8306 49.2526 21.8974 49.2526C22.9338 49.2526 23.8031 48.482 23.9034 47.4433C24.0371 45.9356 24.2711 44.3943 24.5386 42.8866C27.1129 29.4175 35.4041 17.6572 47.2391 10.6546C48.2086 10.085 48.5095 8.84533 47.9412 7.90719C47.3728 6.93554 46.1358 6.63399 45.1997 7.20358C32.3283 14.8093 23.3685 27.5412 20.5601 42.1495C20.2593 43.7577 20.0252 45.433 19.8581 47.0747C19.7578 48.1804 20.5936 49.1521 21.6968 49.2526Z" fill="black"></path>
  <path d="M36.1396 84.3325C34.2674 82.2552 32.5623 80.0103 31.0579 77.665C30.4561 76.7268 29.2191 76.4588 28.283 77.0284C27.3469 77.6314 27.0794 78.8711 27.6478 79.8093C29.2525 82.3557 31.1247 84.8016 33.1641 87.0129C33.5653 87.4485 34.1002 87.683 34.6351 87.683C35.1032 87.683 35.6047 87.5155 35.9724 87.1469C36.8417 86.4098 36.9085 85.1366 36.1396 84.3325Z" fill="black"></path>
  <path d="M95.1809 93.7139C88.0264 97.8015 79.8355 99.9794 71.5443 99.9794C63.2531 99.9794 55.0622 97.8015 47.9077 93.7139C46.9382 93.1778 45.7346 93.5129 45.1663 94.451C44.6314 95.4227 44.9657 96.6289 45.9018 97.1984C53.6915 101.621 62.5511 103.966 71.5443 103.966C80.5376 103.966 89.3972 101.621 97.1869 97.1984C98.1564 96.6624 98.4907 95.4227 97.9224 94.451C97.354 93.5129 96.1505 93.1778 95.1809 93.7139Z" fill="black"></path>
  <path d="M114.772 77.0284C113.836 76.4253 112.599 76.7268 111.997 77.665C110.493 80.0103 108.788 82.2552 106.916 84.3325C106.18 85.1366 106.214 86.4098 107.049 87.1804C107.451 87.5155 107.919 87.7165 108.387 87.7165C108.922 87.7165 109.49 87.482 109.858 87.0464C111.897 84.8016 113.736 82.3892 115.374 79.8428C115.976 78.8711 115.708 77.6315 114.772 77.0284Z" fill="black"></path>
  <path d="M53.8382 7.12079C54.6085 6.34881 54.6085 5.09718 53.8382 4.3252C53.0679 3.55321 51.819 3.55322 51.0487 4.3252C50.2784 5.09718 50.2784 6.34881 51.0487 7.12079C51.819 7.89278 53.0679 7.89278 53.8382 7.12079Z" fill="black"></path>
</svg>