<svg viewBox="0 0 170 100" xmlns="http://www.w3.org/2000/svg">
  <path d="M1.73,2.5c-.73,.44-.76,1.45-.71,2.29,1.03,17.61,9.53,35.06,11.45,52.59,.74,6.73,1.55,13.49,3.29,20.04,2.96,11.16,16.61,26.75,32.79,18.03,2.4-1.29,3.2-2.72,4.75-4.57,5.21-6.22,8.96-13.55,11.67-21.16,.59-1.64,2.96-1.49,3.31,.21,.95,4.66,1.8,9.34,3.53,13.76,2.52,6.41,7.53,12.46,14.38,13.67,3.5,.62,13.91,.93,17.26-.25,13.22-4.65,18.33-14.5,22.83-24.65,4.5-10.15,20.43-32.86,25.14-41.18,4.71-8.32,16.7-8.07,17.5-19.01s-4.98-11.1-11.21-9.41c-5.4,1.47-15.44,4.19-18.37,8.74-1.5,2.33-14.54,19.11-16.11,21.39-5.68,8.24-14.64,18.52-21.23,24.31-4.68,4.11-12.07,3.03-13.98,2.42-1.73-.56-2.72-2.31-3.48-3.95-2.57-5.59-4.31-11.55-5.15-17.63-.11-.82-.79-1.45-1.62-1.49l-13.87-.62c-1.16-.05-2.42-.08-3.38,.58-.95,.65-1.36,1.81-1.78,2.88-1.86,4.81-4.81,9.21-8.55,12.79-1.8,1.72-4.69,1.7-6.45-.06-3.24-3.24-4.63-8.34-5.31-13.35-.37-2.73-.97-5.42-1.86-8.03L28.74,7.97c-.1-1.17-.9-2.16-2.03-2.51L5.54,2.2c-1.49-.46-3.31-.04-3.81,.3" fill="#e6d3ff"/>
</svg>